<svg xmlns="http://www.w3.org/2000/svg" width="1024" height="1024" viewBox="0 0 1024 1024">
  <defs>
    <style>
      .cls-1, .cls-2, .cls-3, .cls-4, .cls-6, .cls-7, .cls-9 {
        fill: none;
      }

      .cls-1, .cls-2, .cls-3, .cls-4 {
        stroke: #fff;
      }

      .cls-1, .cls-2 {
        stroke-width: 20px;
      }

      .cls-1, .cls-2, .cls-3, .cls-4, .cls-6, .cls-7, .cls-8 {
        fill-rule: evenodd;
      }

      .cls-2 {
        stroke-linecap: round;
      }

      .cls-3 {
        stroke-width: 5px;
      }

      .cls-4 {
        stroke-width: 18px;
      }

      .cls-5 {
        fill: #51d77e;
      }

      .cls-6, .cls-7 {
        stroke: #000;
        stroke-width: 28px;
      }

      .cls-7 {
        stroke-linejoin: round;
      }

      .cls-8 {
        fill: #fd7102;
      }

      .cls-9 {
        stroke: #fd7102;
        stroke-width: 60px;
      }
    </style>
  </defs>
  <path class="cls-1" d="M375,558H702"/>
  <path class="cls-2" d="M427,589V433"/>
  <path id="Shape_5_copy" data-name="Shape 5 copy" class="cls-2" d="M629,589V433"/>
  <path id="Line_1" data-name="Line 1" class="cls-3" d="M455,489h1v64h-1V489Z"/>
  <path id="Line_1-2" data-name="Line 1" class="cls-3" d="M597,489h1v64h-1V489Z"/>
  <path id="Line_1-3" data-name="Line 1" class="cls-3" d="M482,494h1v64h-1V494Z"/>
  <path id="Line_1-4" data-name="Line 1" class="cls-3" d="M569,494h1v64h-1V494Z"/>
  <path id="Line_1-5" data-name="Line 1" class="cls-3" d="M539,508h1v50h-1V508Z"/>
  <path id="Line_1-6" data-name="Line 1" class="cls-3" d="M510,511h1v47h-1V511Z"/>
  <path class="cls-4" d="M365,500c23.311,0,61-46,61-46s45.16,54,99,54c63.605,0,105-55,105-55s34.992,47,66,47"/>
  <rect class="cls-5" x="49.5" y="349.5" width="326" height="326" rx="50" ry="50"/>
  <path class="cls-6" d="M89,571l84-124"/>
  <path class="cls-7" d="M177,570l78-116,81,117"/>
  <path id="Triangle_1" data-name="Triangle 1" class="cls-8" d="M840.323,688.54a10,10,0,0,1-14.615,0l-36.165-38.714A10,10,0,0,1,796.85,633h72.331a10,10,0,0,1,7.307,16.826Z"/>
  <circle class="cls-9" cx="833.015" cy="504.015" r="122.765"/>
</svg>
